<svg xmlns="http://www.w3.org/2000/svg" viewBox="0 0 560 700" width="560" height="700" role="img" aria-label="Consulta tecnica">
  <defs>
    <linearGradient id="bgrc" x1="0" y1="0" x2="0" y2="1">
      <stop offset="0%" stop-color="#131009"/>
      <stop offset="100%" stop-color="#0A0806"/>
    </linearGradient>
    <linearGradient id="figrc" x1="0" y1="0" x2="0" y2="1">
      <stop offset="0%" stop-color="#3A342C"/>
      <stop offset="100%" stop-color="#1D1912"/>
    </linearGradient>
  </defs>
  <rect width="560" height="700" fill="url(#bgrc)"/>
  <g opacity=".9"><line x1="40" y1="0" x2="40" y2="700" stroke="#C7AD95" stroke-opacity=".05" stroke-width="1"/>
    <line x1="80" y1="0" x2="80" y2="700" stroke="#C7AD95" stroke-opacity=".05" stroke-width="1"/>
    <line x1="120" y1="0" x2="120" y2="700" stroke="#C7AD95" stroke-opacity=".05" stroke-width="1"/>
    <line x1="160" y1="0" x2="160" y2="700" stroke="#C7AD95" stroke-opacity=".05" stroke-width="1"/>
    <line x1="200" y1="0" x2="200" y2="700" stroke="#C7AD95" stroke-opacity=".05" stroke-width="1"/>
    <line x1="240" y1="0" x2="240" y2="700" stroke="#C7AD95" stroke-opacity=".05" stroke-width="1"/>
    <line x1="280" y1="0" x2="280" y2="700" stroke="#C7AD95" stroke-opacity=".05" stroke-width="1"/>
    <line x1="320" y1="0" x2="320" y2="700" stroke="#C7AD95" stroke-opacity=".05" stroke-width="1"/>
    <line x1="360" y1="0" x2="360" y2="700" stroke="#C7AD95" stroke-opacity=".05" stroke-width="1"/>
    <line x1="400" y1="0" x2="400" y2="700" stroke="#C7AD95" stroke-opacity=".05" stroke-width="1"/>
    <line x1="440" y1="0" x2="440" y2="700" stroke="#C7AD95" stroke-opacity=".05" stroke-width="1"/>
    <line x1="480" y1="0" x2="480" y2="700" stroke="#C7AD95" stroke-opacity=".05" stroke-width="1"/>
    <line x1="520" y1="0" x2="520" y2="700" stroke="#C7AD95" stroke-opacity=".05" stroke-width="1"/>
    <line x1="0" y1="40" x2="560" y2="40" stroke="#C7AD95" stroke-opacity=".05" stroke-width="1"/>
    <line x1="0" y1="80" x2="560" y2="80" stroke="#C7AD95" stroke-opacity=".05" stroke-width="1"/>
    <line x1="0" y1="120" x2="560" y2="120" stroke="#C7AD95" stroke-opacity=".05" stroke-width="1"/>
    <line x1="0" y1="160" x2="560" y2="160" stroke="#C7AD95" stroke-opacity=".05" stroke-width="1"/>
    <line x1="0" y1="200" x2="560" y2="200" stroke="#C7AD95" stroke-opacity=".05" stroke-width="1"/>
    <line x1="0" y1="240" x2="560" y2="240" stroke="#C7AD95" stroke-opacity=".05" stroke-width="1"/>
    <line x1="0" y1="280" x2="560" y2="280" stroke="#C7AD95" stroke-opacity=".05" stroke-width="1"/>
    <line x1="0" y1="320" x2="560" y2="320" stroke="#C7AD95" stroke-opacity=".05" stroke-width="1"/>
    <line x1="0" y1="360" x2="560" y2="360" stroke="#C7AD95" stroke-opacity=".05" stroke-width="1"/>
    <line x1="0" y1="400" x2="560" y2="400" stroke="#C7AD95" stroke-opacity=".05" stroke-width="1"/>
    <line x1="0" y1="440" x2="560" y2="440" stroke="#C7AD95" stroke-opacity=".05" stroke-width="1"/>
    <line x1="0" y1="480" x2="560" y2="480" stroke="#C7AD95" stroke-opacity=".05" stroke-width="1"/>
    <line x1="0" y1="520" x2="560" y2="520" stroke="#C7AD95" stroke-opacity=".05" stroke-width="1"/>
    <line x1="0" y1="560" x2="560" y2="560" stroke="#C7AD95" stroke-opacity=".05" stroke-width="1"/>
    <line x1="0" y1="600" x2="560" y2="600" stroke="#C7AD95" stroke-opacity=".05" stroke-width="1"/>
    <line x1="0" y1="640" x2="560" y2="640" stroke="#C7AD95" stroke-opacity=".05" stroke-width="1"/>
    <line x1="0" y1="680" x2="560" y2="680" stroke="#C7AD95" stroke-opacity=".05" stroke-width="1"/></g>
  <g>
    <path d="M112 700 C 123 448 190 350 280 343
             C 370 350 437 448 448 700 Z" fill="url(#figrc)"/>
    <ellipse cx="280.0" cy="203" rx="81" ry="96" fill="#332E27"/>
    <path d="M199 166 Q 280 89 361 166" fill="#0A0806" opacity=".92"/>
  </g>
  <path d="M10 26 V10 H26" fill="none" stroke="#C7AD95" stroke-opacity=".55" stroke-width="1"/>
    <path d="M550 26 V10 H534" fill="none" stroke="#C7AD95" stroke-opacity=".55" stroke-width="1"/>
    <path d="M10 674 V690 H26" fill="none" stroke="#C7AD95" stroke-opacity=".55" stroke-width="1"/>
    <path d="M550 674 V690 H534" fill="none" stroke="#C7AD95" stroke-opacity=".55" stroke-width="1"/>
  <text x="24" y="666" fill="#C7AD95" font-family="IBM Plex Mono, monospace" font-size="10" letter-spacing="0.08em" text-anchor="start">CONSULTA TECNICA</text>
  <text x="24" y="682" fill="#947051" font-family="IBM Plex Mono, monospace" font-size="9" letter-spacing="0.08em" text-anchor="start">PLANEJAMENTO CIRURGICO</text>
</svg>
