<svg xmlns="http://www.w3.org/2000/svg" viewBox="0 0 1200 600" width="1200" height="600" role="img" aria-label="Procedimento FUE">
  <defs>
    <linearGradient id="bgp" x1="0" y1="0" x2="1" y2="1">
      <stop offset="0%" stop-color="#16110C"/>
      <stop offset="55%" stop-color="#100C09"/>
      <stop offset="100%" stop-color="#0A0705"/>
    </linearGradient>
    <linearGradient id="skinp" x1="0" y1="0" x2="0" y2="1">
      <stop offset="0%" stop-color="#947051" stop-opacity=".72"/>
      <stop offset="100%" stop-color="#6B4F37" stop-opacity=".34"/>
    </linearGradient>
    <linearGradient id="glowp" x1="0" y1="0" x2="0" y2="1">
      <stop offset="0%" stop-color="#B4901F" stop-opacity=".14"/>
      <stop offset="100%" stop-color="#B4901F" stop-opacity="0"/>
    </linearGradient>
    <pattern id="rhombp" width="46" height="46" patternUnits="userSpaceOnUse" patternTransform="rotate(45)">
      <rect width="46" height="46" fill="none"/>
      <rect x="0" y="0" width="23" height="23" fill="#BCA48A" opacity=".028"/>
    </pattern>
  </defs>
  <rect width="1200" height="600" fill="url(#bgp)"/>
  <rect width="1200" height="600" fill="url(#rhombp)"/>
  <ellipse cx="600" cy="330" rx="408" ry="300" fill="url(#glowp)"/>
  <ellipse cx="600" cy="432" rx="240" ry="240" fill="url(#skinp)" opacity=".72"/>
  <g stroke="#B4901F" stroke-opacity=".45" fill="none" stroke-width="1.3">
    <path d="M372 360 q 4 -84 11 -144"/>
    <path d="M390 360 q 4 -84 11 -144"/>
    <path d="M408 360 q 4 -84 11 -144"/>
    <path d="M427 360 q 4 -84 11 -144"/>
    <path d="M445 360 q 4 -84 11 -144"/>
    <path d="M463 360 q 4 -84 11 -144"/>
    <path d="M481 360 q 4 -84 11 -144"/>
    <path d="M500 360 q 4 -84 11 -144"/>
    <path d="M518 360 q 4 -84 11 -144"/>
    <path d="M536 360 q 4 -84 11 -144"/>
    <path d="M554 360 q 4 -84 11 -144"/>
    <path d="M573 360 q 4 -84 11 -144"/>
    <path d="M591 360 q 4 -84 11 -144"/>
    <path d="M609 360 q 4 -84 11 -144"/>
    <path d="M627 360 q 4 -84 11 -144"/>
    <path d="M646 360 q 4 -84 11 -144"/>
    <path d="M664 360 q 4 -84 11 -144"/>
    <path d="M682 360 q 4 -84 11 -144"/>
    <path d="M700 360 q 4 -84 11 -144"/>
    <path d="M719 360 q 4 -84 11 -144"/>
    <path d="M737 360 q 4 -84 11 -144"/>
    <path d="M755 360 q 4 -84 11 -144"/>
    <path d="M773 360 q 4 -84 11 -144"/>
    <path d="M792 360 q 4 -84 11 -144"/>
    <path d="M810 360 q 4 -84 11 -144"/>
    <path d="M828 360 q 4 -84 11 -144"/>
  </g>
  <g stroke="#BCA48A" stroke-opacity=".58" stroke-width="2.1" stroke-linecap="round" fill="none">
    <path d="M240 144 L480 300"/>
    <path d="M960 144 L720 300"/>
  </g>
  <circle cx="480" cy="300" r="4.5" fill="#B4901F"/>
  <circle cx="720" cy="300" r="4.5" fill="#B4901F"/>
  <text x="600.0" y="572" fill="#8B7358" font-family="Montserrat, Segoe UI, sans-serif" font-size="12" font-weight="500" letter-spacing="0.26em" text-anchor="middle">IMAGEM ILUSTRATIVA DO PROCEDIMENTO</text>
</svg>
